<?xml version="1.0" encoding="UTF-8" standalone="no"?>
<!-- Created with Inkscape (http://www.inkscape.org/) -->

<svg
   width="210mm"
   height="297mm"
   viewBox="0 0 210 297"
   version="1.1"
   id="svg1"
   xml:space="preserve"
   inkscape:version="1.3.2 (091e20e, 2023-11-25, custom)"
   sodipodi:docname="vector logo.svg"
   xmlns:inkscape="http://www.inkscape.org/namespaces/inkscape"
   xmlns:sodipodi="http://sodipodi.sourceforge.net/DTD/sodipodi-0.dtd"
   xmlns="http://www.w3.org/2000/svg"
   xmlns:svg="http://www.w3.org/2000/svg"><sodipodi:namedview
     id="namedview1"
     pagecolor="#ffffff"
     bordercolor="#000000"
     borderopacity="0.25"
     inkscape:showpageshadow="2"
     inkscape:pageopacity="0.0"
     inkscape:pagecheckerboard="0"
     inkscape:deskcolor="#d1d1d1"
     inkscape:document-units="mm"
     inkscape:zoom="1.4022026"
     inkscape:cx="392.59662"
     inkscape:cy="178.64751"
     inkscape:window-width="1920"
     inkscape:window-height="1001"
     inkscape:window-x="-9"
     inkscape:window-y="-9"
     inkscape:window-maximized="1"
     inkscape:current-layer="layer1" /><defs
     id="defs1"><rect
       x="446.79465"
       y="209.78169"
       width="0"
       height="69.59104"
       id="rect3" /><rect
       x="288.29643"
       y="373.65321"
       width="37.619386"
       height="16.090756"
       id="rect1" /></defs><g
     inkscape:label="Katman 1"
     inkscape:groupmode="layer"
     id="layer1"><g
       style="fill:#1a1a1a"
       id="g1"
       transform="matrix(3.1247898,0,0,3.1247898,0.48371573,0.40490406)"
       inkscape:export-filename="favicon.png"
       inkscape:export-xdpi="254"
       inkscape:export-ydpi="254"><path
         d="m 9.752,6.193 c 0.599,0.6 1.73,0.437 2.528,-0.362 C 13.078,5.032 13.24,3.899 12.642,3.3 12.043,2.7 10.912,2.862 10.114,3.661 9.316,4.461 9.154,5.594 9.752,6.193"
         id="path1"
         style="fill:#1a1a1a" /><path
         d="m 15.811,3.312 c -0.363,1.534 -1.334,3.626 -3.64,6.218 l -0.24,2.408 a 2.56,2.56 0 0 1 -0.732,1.526 L 8.817,15.85 A 0.51,0.51 0 0 1 7.95,15.416 L 8.22,13.517 C 8.26,13.237 8.207,12.924 8.089,12.561 A 9,9 0 0 0 7.84,11.904 L 7.758,11.702 C 6.943,11.505 6.18,11.04 5.567,10.425 4.953,9.81 4.488,9.046 4.292,8.23 L 4.089,8.147 A 10,10 0 0 0 3.434,7.899 C 3.071,7.78 2.759,7.727 2.479,7.767 L 0.583,8.037 A 0.51,0.51 0 0 1 0.15,7.17 L 2.532,4.784 C 2.942,4.374 3.479,4.114 4.056,4.05 h 0.006 l 2.4,-0.238 c 2.543,-2.262 4.625,-3.23 6.161,-3.604 0.89,-0.217 1.59,-0.232 2.08,-0.188 0.244,0.023 0.435,0.06 0.57,0.093 q 0.1,0.026 0.16,0.045 c 0.184,0.06 0.279,0.13 0.351,0.295 l 0.029,0.073 a 3.5,3.5 0 0 1 0.157,0.721 c 0.055,0.485 0.051,1.178 -0.159,2.065 m -4.828,7.475 0.04,-0.04 -0.107,1.081 a 1.54,1.54 0 0 1 -0.44,0.913 l -1.298,1.3 0.054,-0.38 C 9.304,13.155 9.198,12.668 9.06,12.243 a 9,9 0 0 0 -0.164,-0.45 c 0.738,-0.065 1.462,-0.38 2.087,-1.006 M 5.205,5 C 4.58,5.626 4.265,6.351 4.201,7.09 A 9,9 0 0 0 3.751,6.926 C 3.327,6.788 2.841,6.682 2.335,6.754 l -0.38,0.054 1.3,-1.3 C 3.5,5.262 3.821,5.107 4.165,5.068 L 5.245,4.961 Z M 14.611,1.039 C 14.231,1.005 13.644,1.012 12.865,1.202 11.307,1.582 8.948,2.698 5.928,5.723 5.308,6.343 5.129,7.063 5.241,7.774 5.348,8.45 5.724,9.136 6.289,9.702 c 0.564,0.565 1.25,0.941 1.924,1.049 0.71,0.112 1.429,-0.067 2.048,-0.688 C 13.34,6.98 14.453,4.619 14.817,3.076 15,2.305 14.997,1.731 14.955,1.363 A 3,3 0 0 0 14.91,1.08 3,3 0 0 0 14.61,1.039 Z"
         id="path2"
         style="fill:#1a1a1a" /><path
         d="M 7.009,12.139 A 7.6,7.6 0 0 1 5.205,10.787 7.6,7.6 0 0 1 3.794,8.86 C 2.692,9.852 1.829,13.914 1.955,14.04 2.08,14.166 5.891,13.144 7.009,12.138 Z"
         id="path3"
         style="fill:#1a1a1a" /></g><text
       xml:space="preserve"
       transform="matrix(3.1247898,0,0,3.1247898,-848.64069,-1166.1377)"
       id="text1"
       style="font-weight:bold;font-size:16px;font-family:Arial;-inkscape-font-specification:'Arial Bold';white-space:pre;shape-inside:url(#rect1);display:inline;fill:#1a1a1a;stroke:#000000;stroke-width:0"><tspan
         x="288.29688"
         y="404.15621"
         id="tspan6"><tspan
           dx="0 0.88932073 0.8144511 0.74153471 0.74153447 0.74153471"
           style="font-size:1.33333px"
           id="tspan5">Sosyal</tspan></tspan></text><text
       xml:space="preserve"
       style="font-weight:bold;font-size:24.6944px;font-family:Arial;-inkscape-font-specification:'Arial Bold';fill:#1a1a1a;stroke:#000000;stroke-width:0"
       x="100.9962"
       y="12.449307"
       id="text2"><tspan
         sodipodi:role="line"
         id="tspan2"
         style="font-size:24.6944px;text-align:center;text-anchor:middle;fill:#1a1a1a;stroke-width:0"
         x="100.9962"
         y="12.449307"
         dx="0"
         dy="8.0200005">SOSYAL</tspan><tspan
         sodipodi:role="line"
         style="font-size:24.6944px;text-align:center;text-anchor:middle;fill:#1a1a1a;stroke-width:0"
         x="100.9962"
         y="43.317307"
         id="tspan3">ŞEYLER</tspan></text><text
       xml:space="preserve"
       transform="scale(0.26458333)"
       id="text3"
       style="font-weight:bold;font-size:66.6667px;font-family:Arial;-inkscape-font-specification:'Arial Bold';white-space:pre;shape-inside:url(#rect3);display:inline;fill:#1a1a1a;stroke:#000000;stroke-width:0"
       inkscape:export-filename="dark-logo.png"
       inkscape:export-xdpi="25.399637"
       inkscape:export-ydpi="25.399637" /></g></svg>
